<svg width="24" height="28" viewBox="0 0 24 28" fill="none" xmlns="http://www.w3.org/2000/svg">
<path fill-rule="evenodd" clip-rule="evenodd" d="M11.7299 0.0976562C5.27636 0.0976562 0.0236662 5.10292 0.000493809 11.2632C-0.0226786 12.5745 0.515253 17.8119 9.2496 26.1455C9.93484 26.7984 10.8328 27.1253 11.7299 27.1253C12.627 27.1253 13.5241 26.7984 14.2093 26.1455C22.9453 17.8119 23.4833 12.5745 23.4601 11.2632C23.4369 5.10292 18.1834 0.0976562 11.7299 0.0976562Z" fill="#CC302E"/>
<path fill-rule="evenodd" clip-rule="evenodd" d="M19.9546 11.3037C19.9546 6.96235 16.2809 3.44287 11.73 3.44287C7.18077 3.44287 3.50711 6.96235 3.50711 11.3037C3.50711 11.3037 3.23152 15.6726 11.73 23.7805C20.2293 15.6726 19.9546 11.3037 19.9546 11.3037ZM13.8899 9.24318C13.8891 10.3792 12.9225 11.3021 11.7307 11.3021C10.539 11.3021 9.57322 10.3792 9.57322 9.24318C9.57322 8.10003 10.539 7.18108 11.7307 7.18108C12.9233 7.18108 13.8899 8.10082 13.8899 9.24318Z" fill="white"/>
</svg>
